<svg width="200" height="52" viewBox="0 0 117 52" fill="none" xmlns="http://www.w3.org/2000/svg">
<path d="M21.976 26H16.936L5.52397 8.756V26H0.48397V0.835998H5.52397L16.936 18.116V0.835998H21.976V26ZM28.2166 4.94V11.24H36.6766V15.236H28.2166V21.896H37.7566V26H23.1766V0.835998H37.7566V4.94H28.2166ZM51.5168 26L45.9728 16.208H43.5968V26H38.5568V0.872H47.9888C49.9328 0.872 51.5888 1.22 52.9568 1.916C54.3248 2.588 55.3448 3.512 56.0168 4.688C56.7128 5.84 57.0608 7.136 57.0608 8.576C57.0608 10.232 56.5808 11.732 55.6208 13.076C54.6608 14.396 53.2328 15.308 51.3368 15.812L57.3488 26H51.5168ZM43.5968 12.428H47.8088C49.1768 12.428 50.1968 12.104 50.8688 11.456C51.5408 10.784 51.8768 9.86 51.8768 8.684C51.8768 7.532 51.5408 6.644 50.8688 6.02C50.1968 5.372 49.1768 5.048 47.8088 5.048H43.5968V12.428ZM66.6233 0.872C69.2633 0.872 71.5793 1.388 73.5713 2.42C75.5873 3.452 77.1353 4.928 78.2153 6.848C79.3193 8.744 79.8713 10.952 79.8713 13.472C79.8713 15.992 79.3193 18.2 78.2153 20.096C77.1353 21.968 75.5873 23.42 73.5713 24.452C71.5793 25.484 69.2633 26 66.6233 26H57.8393V0.872H66.6233ZM66.4433 21.716C69.0833 21.716 71.1233 20.996 72.5633 19.556C74.0033 18.116 74.7233 16.088 74.7233 13.472C74.7233 10.856 74.0033 8.816 72.5633 7.352C71.1233 5.864 69.0833 5.12 66.4433 5.12H62.8793V21.716H66.4433Z" fill="#000000"/>
<path d="M33.1433 25.728C35.4713 25.728 37.4753 26.148 39.1553 26.988C40.8593 27.804 42.1553 28.968 43.0433 30.48C43.9553 31.968 44.4113 33.72 44.4113 35.736C44.4113 36.432 44.3273 37.308 44.1593 38.364C43.7273 40.836 42.7913 43.032 41.3513 44.952C39.9353 46.872 38.1233 48.36 35.9153 49.416C33.7313 50.472 31.3193 51 28.6793 51H19.2113L23.6753 25.728H33.1433ZM29.2193 45.744C31.5473 45.744 33.4793 45.096 35.0153 43.8C36.5513 42.504 37.5113 40.692 37.8953 38.364C38.0153 37.644 38.0753 37.044 38.0753 36.564C38.0753 34.788 37.5353 33.42 36.4553 32.46C35.3753 31.476 33.8393 30.984 31.8473 30.984H28.8953L26.3033 45.744H29.2193ZM51.8835 30.588L50.9835 35.844H59.2275L58.3995 40.488H50.1555L49.1475 46.14H58.4715L57.6075 51H42.1275L46.5915 25.728H62.0715L61.2075 30.588H51.8835ZM74.8881 46.536H65.4561L63.1521 51H56.7081L70.3161 25.728H77.4441L82.1241 51H75.6081L74.8881 46.536ZM74.1681 41.856L72.6921 32.496L67.8681 41.856H74.1681ZM88.6511 46.32H96.7151L95.8871 51H81.6671L86.1311 25.728H92.2871L88.6511 46.32ZM105.627 51.252C102.891 51.252 100.659 50.664 98.9313 49.488C97.2273 48.288 96.3753 46.596 96.3753 44.412C96.3753 44.196 96.3993 43.872 96.4473 43.44H102.855C102.783 44.352 102.999 45.072 103.503 45.6C104.007 46.128 104.775 46.392 105.807 46.392C106.743 46.392 107.475 46.188 108.003 45.78C108.555 45.372 108.831 44.796 108.831 44.052C108.831 43.284 108.483 42.66 107.787 42.18C107.115 41.7 106.059 41.16 104.619 40.56C103.227 39.984 102.087 39.444 101.199 38.94C100.335 38.412 99.5793 37.704 98.9313 36.816C98.2833 35.928 97.9593 34.812 97.9593 33.468C97.9353 31.812 98.3433 30.372 99.1833 29.148C100.023 27.924 101.187 26.988 102.675 26.34C104.163 25.692 105.867 25.368 107.787 25.368C109.515 25.368 111.051 25.644 112.395 26.196C113.739 26.724 114.783 27.504 115.527 28.536C116.271 29.544 116.643 30.744 116.643 32.136C116.643 32.496 116.631 32.76 116.607 32.928H110.055C110.079 32.832 110.091 32.688 110.091 32.496C110.091 31.824 109.851 31.284 109.371 30.876C108.915 30.444 108.279 30.228 107.463 30.228C106.599 30.228 105.891 30.444 105.339 30.876C104.811 31.284 104.547 31.848 104.547 32.568C104.547 33.288 104.883 33.9 105.555 34.404C106.227 34.884 107.271 35.448 108.687 36.096C110.103 36.744 111.255 37.344 112.143 37.896C113.055 38.448 113.835 39.192 114.483 40.128C115.131 41.04 115.455 42.168 115.455 43.512C115.455 45 115.059 46.332 114.267 47.508C113.475 48.684 112.335 49.608 110.847 50.28C109.359 50.928 107.619 51.252 105.627 51.252Z" fill="#7FE3A7"/>
</svg>
